<?xml version="1.0" encoding="UTF-8"?>
<svg width="80px" height="40px" viewBox="0 0 80 40" version="1.1" xmlns="http://www.w3.org/2000/svg" xmlns:xlink="http://www.w3.org/1999/xlink">
    <!-- Generator: Sketch 51.3 (57544) - http://www.bohemiancoding.com/sketch -->
    <title>ADA logo</title>
    <desc>Created with Sketch.</desc>
    <defs></defs>
    <g id="ADA-logo" stroke="none" stroke-width="1" fill="none" fill-rule="evenodd">
        <rect id="background" x="0" y="0" width="80" height="40"></rect>
        <path d="M77.0388976,31.7533859 C77.0404598,31.7642802 77.0963064,32.0991921 77.1130995,32.4850611 C77.0096074,31.8507318 76.9658674,31.2336224 76.9147072,30.780279 C76.8502687,30.2088554 77.0553001,29.6145889 77.0388976,29.037191 L77.0388976,31.7533859 Z M76.8311324,6.53027095 C76.8143394,6.91578858 76.7588833,7.25070044 76.7573211,7.26194617 L76.5062064,9.96092103 C76.5226089,9.38352315 76.5683017,8.8064767 76.6327401,8.23505312 C76.6839003,7.78170969 76.7280309,7.1642489 76.8311324,6.53027095 Z M77.6668796,8.99765409 L77.6309503,8.93439687 C77.6450096,8.92561114 77.6582878,8.90909398 77.6711755,8.88097966 C77.6700039,8.91963685 77.6684418,8.95829404 77.6668796,8.99765409 Z M77.978918,29.8356378 C77.9804801,29.8753492 78.2023046,30.0781238 78.2038668,30.1171324 C78.1909791,30.0886667 78.1777008,30.0721495 78.163251,30.0633638 L77.978918,29.8356378 Z M76.4722298,35.3207419 C77.3583561,36.4259861 79.0841351,36.8171266 80.7552389,36.4425033 C81.118828,36.3609718 80.6220661,36.2435945 80.4596031,36.2801431 C77.6875781,36.9014696 76.5690827,34.9949672 76.2226772,33.1780792 C76.2437662,33.173862 76.2621214,33.166482 76.2785239,33.1555877 C76.8034044,35.0258929 78.0777236,36.5271977 80.6915816,35.8489397 C80.9645663,35.7783025 80.4053186,35.6830652 80.2772228,35.7160995 C77.600098,36.4108747 76.9127545,33.7175227 76.6280537,31.9122318 C76.6460183,31.8043431 76.6616398,31.6799373 76.6756991,31.5428799 C76.8846359,33.5600825 77.7078859,35.9698313 80.3803243,35.3667791 C80.5646573,35.3253105 80.3342411,35.2318303 80.2327017,35.2550247 C78.6373618,35.6145365 77.6715661,34.6354553 77.3185215,33.4205652 C77.51418,32.8312187 77.3372672,31.7677945 77.3294565,31.7224602 L77.2782962,28.455576 C77.3337524,28.5012618 77.372806,28.6007162 77.4130312,28.7391792 L77.47044,29.0660082 L77.589163,29.5871774 C77.6165005,30.9092534 77.4282621,32.2562808 77.6801579,33.5217767 C77.903154,34.6421325 78.9029263,35.2072303 80.1749023,34.9285471 C80.3615786,34.8874299 80.2569149,34.7103097 80.0971857,34.7454526 C78.1687185,35.1678703 77.957829,33.4873367 77.8801123,32.575027 C77.8250468,31.9210176 77.7824783,31.2659539 77.7445963,30.6105387 C77.7848215,30.4186585 77.8379344,30.0644181 77.8746448,29.9987008 C77.8933906,30.0479009 77.9164322,30.3603213 77.9351779,30.7272132 C77.9363495,30.7461903 77.9535331,30.7574361 77.9722789,30.7637618 C77.9824328,31.1703652 77.9882908,31.5354999 77.9925867,31.8408917 C77.9988353,32.2348437 78.0035217,32.5462098 78.0152378,32.7328186 C78.1054517,34.2214719 78.9650216,34.498398 79.0013414,34.5092923 C79.0532827,34.5240523 79.3586819,34.4825837 79.3758655,34.4368979 C79.3930491,34.3908607 79.3657116,34.3413092 79.3153324,34.3258463 C79.3012731,34.3212778 78.2925184,34.0777374 78.2101153,32.7229786 C78.1987898,32.5402355 78.1941033,32.2302751 78.1878548,31.8380803 C78.1694996,30.6319759 78.6076811,28.4316788 78.3253235,26.2985047 C78.346803,26.205376 78.4487329,21.5162586 75.3248348,19.1760928 C75.2150941,19.0938584 75.1151169,19.0175983 75.0209977,18.944501 C75.78762,18.3794032 76.3484298,17.4171905 76.7588833,16.2645033 C77.4278716,14.5663983 77.5766658,12.9083562 77.5860387,12.7976561 C77.5883819,12.7723532 77.5758847,12.7505646 77.5579201,12.7329931 C77.8535559,10.5625675 77.8875325,8.40409048 77.9062783,7.17690034 C77.9125268,6.78470556 77.9172133,6.47474517 77.9281483,6.29200208 C78.0109419,4.93759464 78.7685819,4.67683431 78.7826412,4.67226573 C78.8334109,4.65680285 78.8607484,4.60689993 78.8435648,4.56121416 C78.8263813,4.51552839 78.7717062,4.49127978 78.7197649,4.5060398 C78.6830545,4.5169341 77.8238751,4.79386017 77.7332708,6.28251349 C77.7219452,6.46877087 77.7172588,6.78013698 77.7110102,7.17444034 C77.7063238,7.47948073 77.7004657,7.84461548 77.6903118,8.25157028 C77.6719566,8.25789601 77.6543825,8.26879031 77.6536014,8.2881189 C77.6344651,8.65465937 77.6055655,8.78890525 77.5868197,8.83810532 C77.5504999,8.77238809 77.503245,8.59667358 77.4630198,8.40444191 C77.5009018,7.74902679 77.5434702,7.09431453 77.5985358,6.44030512 C77.675862,5.52799539 77.6360273,3.82989037 79.5644944,4.25265948 C79.7242237,4.28745095 79.8292779,4.11033073 79.6426017,4.06956496 C78.3706257,3.79088175 77.6215775,4.37319963 77.3981908,5.49355534 C77.1462951,6.75905124 77.0838093,8.08885865 77.0564718,9.41093462 L76.9377488,9.93210385 L76.88034,10.2585814 C76.8405053,10.3973959 76.8014517,10.4964989 76.7639602,10.5467532 L77.04788,7.29252049 C77.0553001,7.24718615 77.2326035,6.18376194 77.0369449,5.59441547 C77.3899896,4.37952536 78.1046706,3.38322409 79.7000105,3.7430874 C79.8015498,3.76593029 80.0323567,3.6728016 79.8476331,3.63133297 C77.1755853,3.02828078 76.6030594,5.45489815 76.393732,7.47210072 C76.3800633,7.3350434 76.3640513,7.21098896 76.3464772,7.10274882 C76.631178,5.29745795 77.0674068,2.58688593 79.7445316,3.2816611 C79.8726274,3.31504686 80.4318751,3.21980959 80.1588904,3.14882093 C77.5450324,2.47056293 76.5218279,3.98943914 75.9969474,5.85974438 C75.9805449,5.84885008 75.9617991,5.84111864 75.9407102,5.8369015 C76.2875062,4.02001347 77.1548868,2.09629102 79.9273025,2.71761753 C80.0893749,2.75416614 80.5861368,2.63678885 80.2225477,2.55560875 C78.5514439,2.18098541 77.0767796,2.5889945 76.1906533,3.69423877 C76.9990629,2.49024295 78.4405316,1.78668205 80.2487137,2.34650848 C80.3686082,2.38340853 80.5779356,2.2632198 80.3967268,2.20699116 C78.3171222,1.5631732 76.0949719,2.45720862 75.4181729,4.38866251 C75.2904676,4.7530944 75.2162658,5.13896346 75.1670582,5.53221254 C75.1229276,5.53713254 75.1080873,5.56173257 75.1155074,5.58492689 L75.1498746,5.69070702 C75.0862172,6.2789992 75.0690337,6.87888854 75.0108438,7.44433783 C74.8374458,9.13049426 74.6445209,10.8268421 74.6296806,12.5214329 C74.5878932,13.2049623 74.4941645,13.8052031 74.3648971,14.3295352 L74.136043,15.0889733 C73.4565102,17.0306186 72.3618376,17.7331252 72.3602754,17.7362881 C72.3196597,17.7506967 71.9642718,17.9004054 72.0029349,18.6394607 C72.004497,18.6693321 72.0228522,18.6963922 72.0513614,18.7111522 C72.0798705,18.726615 72.1154093,18.7273179 72.144309,18.7139636 L72.2864641,18.6496521 C72.2446767,18.8527781 72.2247594,19.1606299 72.4329151,19.3096358 C72.4645485,19.3317758 72.5082886,19.3349387 72.5434368,19.3163129 L72.6691895,19.2495414 L72.6211535,19.3806245 C72.6051415,19.4256074 72.6313075,19.4741046 72.680515,19.4902703 L72.7383143,19.5095989 L72.6379466,19.5173303 C72.5981119,19.5204932 72.5645258,19.5450932 72.5532002,19.5791818 C72.5414842,19.6136219 72.5543718,19.6508734 72.5852242,19.6733648 L72.7113673,19.7647364 L72.7691667,19.937288 C72.7746342,19.954508 72.7859597,19.9696195 72.8015812,19.9808652 L73.3370061,20.3642743 L72.9738076,20.2989085 C72.9261622,20.2894199 72.8816411,20.3126142 72.8644575,20.3512714 C72.8464928,20.39028 72.8617237,20.4349115 72.9003868,20.4581058 C72.9242095,20.472163 74.883529,22.9676604 75.2029875,26.061993 C75.2272008,26.2992075 75.2650828,26.5086592 75.3146808,26.6924566 C75.6509324,29.38616 75.4314511,33.3242736 75.4314511,33.3242736 L75.397084,33.4300538 C75.3896638,33.4535995 75.4045041,33.4778481 75.4302795,33.4848767 C75.4978423,33.8763686 75.5724347,34.2622377 75.6997494,34.6263181 C76.3765484,36.557772 78.8498134,37.4349389 80.9290275,36.7907695 C81.1102362,36.7348923 80.9012994,36.6143521 80.7814049,36.6516036 C78.9732228,37.21143 77.28103,36.5250891 76.4722298,35.3207419 Z" id="Fill-18" fill="#C81D5C"></path>
        <g id="ada" transform="translate(0.000000, 8.000000)" fill="#FEFEFE">
            <path d="M9.80293671,0.789528544 L0,21.9289556 L4.46420253,21.9289556 L6.33762025,17.9425136 L17.7636456,17.9425136 L19.6054684,21.9289556 L24.1012658,21.9289556 L14.2983291,0.789528544 L9.80293671,0.789528544 Z M12.0502278,5.22853002 L16.108962,14.2279992 L7.9923038,14.2279992 L12.0502278,5.22853002 Z" id="Fill-1"></path>
            <path d="M29.2203342,18.0935627 L33.7161316,18.0935627 C38.6797772,18.0935627 40.6463595,14.5906345 40.5531949,11.1476558 C40.4592203,7.85592206 38.461043,4.56458016 33.7161316,4.56458016 L29.2203342,4.56458016 L29.2203342,18.0935627 Z M44.6427139,11.1782182 C44.7362835,16.5231224 41.3645367,21.9287596 33.7161316,21.9287596 L25.1308152,21.9287596 L25.1308152,0.789332631 L33.7161316,0.789332631 C41.2085873,0.789332631 44.5491443,5.9536048 44.6427139,11.1782182 Z" id="Fill-2"></path>
            <path d="M55.9432506,5.22872593 L51.8849215,14.2281951 L60.0019848,14.2281951 L55.9432506,5.22872593 Z M61.6562633,17.9423177 L50.230238,17.9423177 L48.3568203,21.9287596 L43.8926177,21.9287596 L53.6955544,0.789332631 L58.1909468,0.789332631 L67.9938835,21.9287596 L63.4984911,21.9287596 L61.6562633,17.9423177 Z" id="Fill-4"></path>
        </g>
    </g>
</svg>